<?xml version="1.0" standalone="no"?>
<!DOCTYPE svg PUBLIC "-//W3C//DTD SVG 20010904//EN"
 "http://www.w3.org/TR/2001/REC-SVG-20010904/DTD/svg10.dtd">
<svg version="1.0" xmlns="http://www.w3.org/2000/svg"
 width="300.000000pt" height="70.000000pt" viewBox="0 0 300.000000 70.000000"
 preserveAspectRatio="xMidYMid meet">

<g transform="translate(0.000000,70.000000) scale(0.100000,-0.100000)"
fill="#000000" stroke="none">
<path d="M504 665 c-190 -41 -325 -175 -325 -321 0 -33 4 -70 9 -83 7 -19 9
-12 9 35 0 83 40 171 107 230 94 86 205 124 356 124 78 0 111 -5 180 -24 22
-6 21 -5 -5 10 -73 42 -214 55 -331 29z"/>
<path d="M1473 504 c-3 -8 -1 -20 5 -26 16 -16 42 -2 42 22 0 24 -38 28 -47 4z"/>
<path d="M1307 504 c-4 -4 -7 -56 -7 -116 l0 -108 30 0 30 0 0 65 c0 51 3 65
15 65 12 0 15 -14 15 -65 0 -63 1 -65 25 -65 25 0 25 1 25 79 0 87 -12 108
-54 97 -21 -5 -25 -2 -28 21 -3 27 -34 44 -51 27z"/>
<path d="M2000 407 c0 -112 6 -127 52 -127 21 0 28 5 28 19 0 10 -7 21 -15 25
-12 4 -15 25 -15 96 0 89 0 90 -25 90 l-25 0 0 -103z"/>
<path d="M1210 470 c0 -11 -7 -20 -15 -20 -17 0 -20 -25 -5 -35 6 -3 10 -26
10 -51 0 -64 13 -84 55 -84 25 0 35 4 35 16 0 9 -9 18 -20 21 -16 4 -20 14
-20 48 0 34 4 44 20 48 11 3 20 12 20 21 0 9 -8 16 -20 16 -13 0 -20 7 -20 20
0 13 -7 20 -20 20 -13 0 -20 -7 -20 -20z"/>
<path d="M1760 470 c0 -11 -7 -20 -15 -20 -17 0 -20 -25 -5 -35 6 -3 10 -26
10 -51 0 -64 13 -84 55 -84 37 0 50 25 20 36 -10 4 -15 20 -15 49 0 29 5 45
15 49 8 3 15 12 15 21 0 8 -7 15 -15 15 -8 0 -15 9 -15 20 0 15 -7 20 -25 20
-18 0 -25 -5 -25 -20z"/>
<path d="M1070 442 c-27 -22 -37 -95 -18 -132 12 -22 20 -25 63 -25 39 0 50 4
53 18 3 13 -4 17 -31 17 -22 0 -37 6 -41 15 -4 12 3 15 34 15 40 0 40 0 40 38
0 65 -52 93 -100 54z m58 -45 c2 -12 -3 -17 -17 -17 -23 0 -24 1 -15 25 8 19
28 15 32 -8z"/>
<path d="M1483 453 c-9 -3 -13 -31 -13 -89 0 -83 0 -84 25 -84 l26 0 -3 87
c-3 83 -9 97 -35 86z"/>
<path d="M1571 443 c-29 -24 -37 -80 -17 -126 14 -34 18 -37 54 -37 58 0 79
33 74 118 -4 53 -69 79 -111 45z m57 -76 c2 -37 0 -47 -12 -47 -19 0 -31 41
-22 76 10 40 31 22 34 -29z"/>
<path d="M1875 435 c-30 -29 -34 -97 -9 -133 13 -19 23 -23 62 -20 58 4 66 30
13 38 -51 7 -52 30 -2 30 40 0 41 1 41 35 0 40 -28 75 -60 75 -12 0 -32 -11
-45 -25z m55 -35 c0 -11 -7 -20 -15 -20 -15 0 -21 21 -8 33 12 13 23 7 23 -13z"/>
<path d="M2112 437 c-27 -28 -30 -101 -6 -135 12 -17 25 -22 60 -22 37 0 44 3
44 19 0 15 -8 21 -32 23 -50 5 -48 28 2 28 l43 0 -6 42 c-9 67 -63 90 -105 45z
m58 -43 c0 -8 -7 -14 -15 -14 -15 0 -21 21 -9 33 10 9 24 -2 24 -19z"/>
<path d="M2268 450 c-23 -14 -41 -74 -33 -109 9 -42 37 -63 77 -59 40 4 45 29
8 38 -22 5 -25 11 -25 50 0 40 2 45 21 42 25 -3 42 27 22 40 -17 10 -49 10
-70 -2z"/>
<path d="M2380 440 c-25 -25 -27 -105 -4 -138 18 -26 74 -30 98 -6 33 33 33
109 -1 146 -21 24 -68 23 -93 -2z m66 -45 c8 -34 -3 -75 -21 -75 -11 0 -15 12
-15 43 0 24 3 47 7 50 13 13 23 7 29 -18z"/>
<path d="M2525 452 c-3 -3 -5 -43 -5 -89 0 -82 0 -83 25 -83 24 0 25 2 25 65
0 51 3 65 15 65 12 0 15 -14 15 -65 0 -63 1 -65 25 -65 24 0 25 2 25 65 0 58
2 65 20 65 18 0 20 -7 20 -65 0 -63 1 -65 25 -65 24 0 25 2 25 73 0 89 -13
114 -56 102 -16 -5 -33 -7 -39 -5 -19 5 -114 7 -120 2z"/>
<path d="M2760 440 c0 -11 5 -20 10 -20 6 0 10 9 10 20 0 11 -4 20 -10 20 -5
0 -10 -9 -10 -20z"/>
<path d="M2790 443 c0 -16 6 -21 20 -20 21 1 27 21 10 32 -5 3 -10 0 -10 -7 0
-9 -3 -9 -10 2 -8 12 -10 11 -10 -7z"/>
<path d="M410 301 c-104 -32 -147 -110 -105 -190 30 -59 203 -102 331 -82 72
11 188 61 197 85 11 28 -16 34 -83 20 -109 -24 -216 0 -266 59 -22 26 -25 38
-21 74 5 46 0 50 -53 34z"/>
<path d="M1066 229 c3 -6 1 -15 -6 -19 -8 -5 -10 -17 -6 -34 8 -32 23 -34 29
-3 l4 22 2 -22 c0 -13 5 -23 10 -23 5 0 18 -3 28 -6 17 -5 17 -5 1 9 -10 8
-18 23 -18 34 0 11 -8 27 -18 36 -21 19 -37 23 -26 6z"/>
<path d="M1138 228 c14 -14 16 -32 3 -23 -5 3 -12 1 -16 -5 -3 -5 1 -10 9 -10
9 0 16 -9 16 -20 0 -11 5 -20 10 -20 6 0 10 9 10 20 0 13 7 20 20 20 13 0 20
-7 20 -20 0 -11 5 -20 10 -20 6 0 10 9 10 19 0 12 9 21 25 25 31 8 32 22 3 30
-37 9 -58 7 -58 -7 0 -20 -29 -16 -36 5 -3 10 -13 18 -22 18 -12 0 -13 -3 -4
-12z"/>
<path d="M1338 190 c3 -31 8 -40 23 -40 10 0 19 5 19 10 0 6 -4 10 -10 10 -5
0 -10 14 -10 30 0 18 -5 30 -13 30 -9 0 -11 -12 -9 -40z"/>
<path d="M1423 216 c4 -10 7 -29 7 -42 0 -19 5 -24 25 -24 14 0 25 5 25 10 0
6 -6 10 -14 10 -8 0 -16 12 -18 27 -2 14 -9 29 -17 31 -10 3 -12 0 -8 -12z"/>
<path d="M1484 214 c3 -9 6 -27 6 -40 0 -33 20 -30 21 4 1 16 3 20 6 10 6 -24
23 -23 23 2 0 13 -7 20 -20 20 -11 0 -20 5 -20 10 0 6 -5 10 -11 10 -6 0 -8
-7 -5 -16z"/>
<path d="M1550 211 c0 -11 5 -23 10 -26 8 -5 8 -11 0 -20 -7 -8 -7 -16 -2 -19
12 -7 42 36 43 61 0 14 2 13 9 -4 6 -15 18 -23 33 -23 20 0 23 4 19 25 -4 23
-9 25 -58 25 -47 0 -54 -3 -54 -19z m27 -13 c-3 -8 -6 -5 -6 6 -1 11 2 17 5
13 3 -3 4 -12 1 -19z m60 0 c-3 -8 -6 -5 -6 6 -1 11 2 17 5 13 3 -3 4 -12 1
-19z"/>
<path d="M1315 200 c-3 -5 -1 -10 4 -10 6 0 11 5 11 10 0 6 -2 10 -4 10 -3 0
-8 -4 -11 -10z"/>
<path d="M1370 200 c0 -5 5 -10 11 -10 5 0 7 5 4 10 -3 6 -8 10 -11 10 -2 0
-4 -4 -4 -10z"/>
<path d="M1400 180 c0 -16 5 -30 10 -30 6 0 10 14 10 30 0 17 -4 30 -10 30 -5
0 -10 -13 -10 -30z"/>
</g>
</svg>
